<svg id="Camada_1" data-name="Camada 1" xmlns="http://www.w3.org/2000/svg" xmlns:xlink="http://www.w3.org/1999/xlink" viewBox="0 0 56.46 56.46"><defs><style>.cls-1,.cls-3{fill:#1d1d1b;}.cls-1,.cls-2,.cls-3,.cls-4{stroke-miterlimit:10;stroke-width:0.25px;}.cls-1{stroke:url(#Gradiente_sem_nome_4);}.cls-2{fill:url(#Gradiente_sem_nome_4-2);stroke:url(#Gradiente_sem_nome_4-3);}.cls-3{stroke:url(#Gradiente_sem_nome_4-4);}.cls-4{stroke:url(#Gradiente_sem_nome_4-5);}</style><linearGradient id="Gradiente_sem_nome_4" x1="20.48" y1="43.08" x2="43.52" y2="43.08" gradientUnits="userSpaceOnUse"><stop offset="0" stop-color="#fff"/><stop offset="0"/></linearGradient><linearGradient id="Gradiente_sem_nome_4-2" x1="26.06" y1="32" x2="60.05" y2="32" xlink:href="#Gradiente_sem_nome_4"/><linearGradient id="Gradiente_sem_nome_4-3" x1="25.93" y1="32" x2="60.23" y2="32" xlink:href="#Gradiente_sem_nome_4"/><linearGradient id="Gradiente_sem_nome_4-4" x1="20.48" y1="20.92" x2="43.52" y2="20.92" xlink:href="#Gradiente_sem_nome_4"/><linearGradient id="Gradiente_sem_nome_4-5" x1="3.77" y1="32" x2="38.06" y2="32" xlink:href="#Gradiente_sem_nome_4"/></defs><g id="Row_01_05" data-name="Row 01, 05"><path class="cls-1" d="M20.6,45.12h3.74v2L32,54.77l7.66-7.66v-21H43.4V48.65L32,60.05,20.6,48.65Zm22,3.19V26.88h-2.1V47.45L32,55.92l-8.48-8.47V45.94h-2.1v2.37L32,58.89Z" transform="translate(-3.77 -3.77)"/><path class="cls-2" d="M26.06,20.6H48.65L60.05,32,48.65,43.4H45.12V39.66h2L54.77,32l-7.66-7.66h-21ZM58.89,32,48.31,21.42H26.88v2.1H47.45L55.92,32l-8.47,8.48H45.94v2.1h2.37Z" transform="translate(-3.77 -3.77)"/><path class="cls-3" d="M20.6,15.35,32,4l11.4,11.4v3.53H39.66v-2L32,9.23l-7.66,7.66v21H20.6Zm2.92,1.2L32,8.08l8.48,8.47v1.51h2.1V15.69L32,5.11,21.42,15.69V37.12h2.1Z" transform="translate(-3.77 -3.77)"/><path class="cls-4" d="M15.35,20.6h3.53v3.74h-2L9.23,32l7.66,7.66h21V43.4H15.35L4,32Zm21.77,22v-2.1H16.55L8.08,32l8.47-8.48h1.51v-2.1H15.69L5.11,32,15.69,42.58Z" transform="translate(-3.77 -3.77)"/></g></svg>