<?xml version="1.0" encoding="UTF-8"?><svg id="Camada_1" xmlns="http://www.w3.org/2000/svg" viewBox="0 0 15.83 16"><defs><style>.cls-1{fill:#5cb8e3;}.cls-2{fill:#fff;}.cls-3{fill:#4fbdc2;}.cls-4{fill:#45a6d2;}.cls-5{fill:#2b81ba;}</style></defs><ellipse class="cls-2" cx="7.91" cy="8" rx="7.91" ry="8"/><g><g><path class="cls-5" d="m15.1,5.03C8.1,13.92.95,9.89.17,9.41c.05.3.12.6.21.91.31,1.07.83,2.02,1.5,2.83,9.05.36,13.23-8.11,13.23-8.11Z"/><path class="cls-5" d="m2.5,13.82s0,0,0,0c0,0,0,0,0,0,0,0,0,0,0,0Z"/><path class="cls-3" d="m2.51,13.82s0,0,0,0c.25.06,6.83,1.66,12.73-2.74.41-1.01.62-2.11.58-3.24-1.17,1.29-6.02,6.06-13.31,5.97Z"/><path class="cls-5" d="m3.8,14.82c1.83,1.13,4.12,1.51,6.34.86,1.49-.43,2.76-1.27,3.71-2.36l-.02-.05c-4.37,2.79-9.16,1.77-10.03,1.55Z"/></g><g><path class="cls-1" d="m6.77,6.01s.33-1.74.14-2.62c0,0-2.38.22-5.35,2.86,0,0,2.23-1.63,4.28-1.81,0,0,0,.7-.24,1.95.24.19,1.16-.39,1.16-.39Z"/><path class="cls-4" d="m8.92,9.25s2.29-2.52,2.5-3.69c0,0-3.36-1.5-11.14,2.76,0,0,6.02-2.19,9.33-1.72,0,0-.22,1.66-.69,2.64Z"/></g></g></svg>