<?xml version="1.0" encoding="UTF-8"?><svg id="Camada_1" xmlns="http://www.w3.org/2000/svg" xmlns:xlink="http://www.w3.org/1999/xlink" viewBox="0 0 235.31 144.98"><defs><style>.cls-1{fill:#5cb8e3;}.cls-2{fill:url(#Gradiente_sem_nome_10-3);}.cls-3{fill:#4fbdc2;}.cls-4{fill:url(#Gradiente_sem_nome_10-2);}.cls-5{fill:url(#Gradiente_sem_nome_10-6);}.cls-6{fill:#45a6d2;}.cls-7{fill:url(#Gradiente_sem_nome_10-4);}.cls-8{fill:url(#Gradiente_sem_nome_10-8);}.cls-9{fill:#2b81ba;}.cls-10{fill:url(#Gradiente_sem_nome_10);}.cls-11{fill:url(#Gradiente_sem_nome_10-7);}.cls-12{fill:url(#Gradiente_sem_nome_10-9);}.cls-13{fill:url(#Gradiente_sem_nome_10-5);}</style><linearGradient id="Gradiente_sem_nome_10" x1="8.42" y1="103.44" x2="10.06" y2="145.62" gradientUnits="userSpaceOnUse"><stop offset="0" stop-color="#23aad7"/><stop offset=".99" stop-color="#035c98"/></linearGradient><linearGradient id="Gradiente_sem_nome_10-2" x1="34.69" y1="116.36" x2="35.06" y2="147.48" xlink:href="#Gradiente_sem_nome_10"/><linearGradient id="Gradiente_sem_nome_10-3" x1="66.35" y1="105.2" x2="66.42" y2="146.63" xlink:href="#Gradiente_sem_nome_10"/><linearGradient id="Gradiente_sem_nome_10-4" x1="97" y1="105.63" x2="97.41" y2="145.29" xlink:href="#Gradiente_sem_nome_10"/><linearGradient id="Gradiente_sem_nome_10-5" x1="126.55" y1="116.97" x2="126.37" y2="145.33" xlink:href="#Gradiente_sem_nome_10"/><linearGradient id="Gradiente_sem_nome_10-6" x1="151.76" y1="116.44" x2="151.83" y2="145.27" xlink:href="#Gradiente_sem_nome_10"/><linearGradient id="Gradiente_sem_nome_10-7" x1="196.41" y1="117.12" x2="196.53" y2="145.48" xlink:href="#Gradiente_sem_nome_10"/><linearGradient id="Gradiente_sem_nome_10-8" x1="224.09" y1="116.49" x2="223.86" y2="146.39" xlink:href="#Gradiente_sem_nome_10"/><linearGradient id="Gradiente_sem_nome_10-9" x1="160.9" y1="126.37" x2="185.62" y2="126.37" xlink:href="#Gradiente_sem_nome_10"/></defs><g><g><path class="cls-9" d="m167.55,11.54c-49.15,62.42-99.39,34.13-104.87,30.76.36,2.12.83,4.24,1.44,6.36,2.19,7.51,5.83,14.19,10.53,19.85,63.56,2.51,92.9-56.96,92.9-56.96Z"/><path class="cls-9" d="m79.07,73.26s.02,0,.05.01c0,0,0,0-.01-.01-.01,0-.03,0-.04,0Z"/><path class="cls-3" d="m79.11,73.26s0,0,.01.01c1.72.43,47.94,11.67,89.39-19.21,2.91-7.11,4.36-14.85,4.09-22.76-8.23,9.03-42.26,42.56-93.49,41.96Z"/><path class="cls-9" d="m88.2,80.27c12.86,7.93,28.9,10.6,44.55,6.04,10.48-3.05,19.35-8.94,26.06-16.57l-.15-.36c-30.67,19.61-64.31,12.45-70.46,10.9Z"/></g><g><path class="cls-1" d="m109.06,18.38s2.35-12.24.99-18.38c0,0-16.69,1.53-37.55,20.11,0,0,15.64-11.42,30.06-12.68,0,0,0,4.93-1.66,13.67,1.66,1.36,8.16-2.72,8.16-2.72Z"/><path class="cls-6" d="m124.12,41.18s16.05-17.73,17.56-25.89c0,0-23.56-10.51-78.24,19.4,0,0,42.29-15.41,65.56-12.08,0,0-1.55,11.63-4.87,18.57Z"/></g></g><g><g><path class="cls-10" d="m19.23,136.9v7.41h-6.34c-1.79,0-3.47-.34-5.02-1.02-1.56-.68-2.92-1.6-4.08-2.77-1.16-1.16-2.09-2.53-2.77-4.08-.68-1.56-1.02-3.23-1.02-5.02v-24.61c.86-.36,1.91-.68,3.14-.97,1.24-.29,2.71-.52,4.43-.7v26.49c0,.72.14,1.4.43,2.04.29.64.67,1.21,1.16,1.69.48.48,1.05.86,1.69,1.13.64.27,1.32.4,2.04.4h6.34Z"/><path class="cls-4" d="m48.73,118.37v25.95h-7.63v-.43c-1.68.54-3.67.81-5.96.81-1.97,0-3.82-.38-5.56-1.13-1.74-.75-3.25-1.77-4.54-3.06-1.29-1.29-2.31-2.79-3.06-4.51s-1.13-3.56-1.13-5.53.38-3.81,1.13-5.51c.75-1.7,1.77-3.18,3.06-4.43,2.65-2.54,5.87-3.98,9.67-4.3.43-.04.85-.06,1.26-.08.41-.02.81-.03,1.21-.03,1.25,0,2.42.07,3.49.22,1.07.14,2.01.3,2.79.46.79.16,1.41.31,1.88.46.47.14.73.21.81.21l2.58.91Zm-7.63,5.69c-.54-.11-1.15-.2-1.83-.27-.68-.07-1.38-.11-2.1-.11-.29,0-.58,0-.89.03-.3.02-.6.05-.89.08-1.04.07-1.99.3-2.85.7-.86.39-1.59.88-2.2,1.45-.61.61-1.07,1.28-1.4,2.01-.32.73-.5,1.57-.54,2.5,0,.93.18,1.8.54,2.61.36.81.83,1.5,1.42,2.1s1.29,1.07,2.1,1.42c.81.36,1.67.54,2.61.54,1.58,0,2.82-.14,3.73-.43.91-.29,1.67-.66,2.28-1.13v-11.5Z"/><path class="cls-2" d="m66.08,116.22c1.97,0,3.82.37,5.56,1.1,1.74.73,3.25,1.75,4.54,3.04,1.29,1.29,2.3,2.8,3.04,4.54.73,1.74,1.1,3.59,1.1,5.56.04,1.97-.33,3.81-1.1,5.51-.77,1.7-1.8,3.16-3.09,4.38-1.25,1.25-2.71,2.25-4.38,2.98-1.67.73-3.43,1.19-5.29,1.37-.39.04-.8.06-1.21.08-.41.02-.82.03-1.21.03-1.29,0-2.47-.07-3.55-.21-1.07-.14-2.01-.3-2.79-.46-.79-.16-1.42-.31-1.88-.46-.47-.14-.73-.23-.81-.27l-2.53-.86v-35.83c.86-.32,1.91-.64,3.14-.94,1.24-.3,2.71-.53,4.43-.67v11.87c1.72-.5,3.72-.75,6.02-.75Zm4.78,18.7c.61-.61,1.07-1.27,1.4-1.99.32-.72.48-1.54.48-2.47s-.17-1.8-.51-2.61c-.34-.81-.82-1.51-1.42-2.12-.61-.61-1.32-1.08-2.12-1.42-.81-.34-1.67-.51-2.61-.51-1.54,0-2.77.14-3.68.43-.91.29-1.69.66-2.34,1.13v11.5c.57.11,1.19.2,1.85.27.66.07,1.37.11,2.12.11.29,0,.58,0,.89-.03.3-.02.6-.04.89-.08,1.04-.07,1.99-.3,2.85-.7.86-.39,1.59-.89,2.2-1.5Z"/><path class="cls-7" d="m107.02,109.02c1.25,1.25,2.26,2.73,3.04,4.43.77,1.7,1.15,3.54,1.15,5.51s-.38,3.81-1.13,5.53c-.75,1.72-1.77,3.22-3.06,4.51-1.29,1.29-2.8,2.31-4.54,3.06-1.74.75-3.59,1.13-5.56,1.13h-6.02v11.12h-7.58v-37.45l2.58-.86s.3-.13.78-.27c.48-.14,1.12-.3,1.91-.46.79-.16,1.72-.31,2.79-.46,1.07-.14,2.24-.21,3.49-.21.39,0,.8,0,1.21.03.41.02.83.05,1.26.08,1.83.18,3.57.63,5.24,1.34,1.67.72,3.14,1.7,4.43,2.95Zm-10.1,16.6c.93,0,1.8-.18,2.61-.54.81-.36,1.51-.83,2.12-1.42.61-.59,1.08-1.29,1.42-2.1.34-.81.51-1.67.51-2.61,0-1.79-.63-3.28-1.88-4.46-.61-.61-1.34-1.11-2.2-1.5-.86-.39-1.81-.63-2.85-.7-.29-.04-.58-.06-.89-.08-.3-.02-.6-.03-.89-.03-.75,0-1.46.04-2.12.11-.66.07-1.28.16-1.85.27v13.05h6.02Z"/><path class="cls-13" d="m136.56,120.41c1.25,1.29,2.25,2.79,2.98,4.51.73,1.72,1.1,3.56,1.1,5.53s-.37,3.81-1.1,5.53c-.73,1.72-1.75,3.22-3.04,4.51-1.29,1.29-2.79,2.31-4.51,3.06-1.72.75-3.56,1.13-5.53,1.13s-3.81-.38-5.53-1.13c-1.72-.75-3.22-1.77-4.51-3.06-1.29-1.29-2.3-2.79-3.04-4.51-.73-1.72-1.1-3.56-1.1-5.53s.38-3.82,1.13-5.56c.75-1.74,1.77-3.25,3.06-4.54,1.29-1.29,2.79-2.3,4.51-3.04,1.72-.73,3.56-1.1,5.53-1.1s3.82.38,5.56,1.13c1.74.75,3.23,1.77,4.49,3.06Zm-10.1,16.71c.89,0,1.75-.17,2.55-.51.81-.34,1.51-.81,2.12-1.42s1.08-1.32,1.42-2.12c.34-.81.51-1.67.51-2.61s-.17-1.81-.51-2.63c-.34-.82-.81-1.53-1.4-2.12s-1.29-1.06-2.1-1.4c-.81-.34-1.66-.51-2.55-.51s-1.8.17-2.61.51c-.81.34-1.5.82-2.1,1.42-.59.61-1.07,1.32-1.42,2.12-.36.81-.54,1.67-.54,2.61s.17,1.8.51,2.61c.34.81.81,1.51,1.42,2.12.61.61,1.31,1.08,2.1,1.42.79.34,1.65.51,2.58.51Z"/><path class="cls-5" d="m143.07,144.31v-26l2.58-.86c.07,0,.34-.07.81-.21.47-.14,1.1-.3,1.91-.46s1.75-.31,2.85-.46c1.09-.14,2.28-.22,3.57-.22.36,0,.73,0,1.1.03.38.02.76.05,1.16.08,1.11.07,1.93.16,2.47.27.54.11.88.18,1.02.21l-1.4,5.1-.54,2.26s-.05-.02-.05-.05c-.11,0-.2-.02-.27-.05-.39-.07-1-.13-1.83-.16-.29-.04-.56-.06-.83-.08-.27-.02-.55-.03-.83-.03-.79,0-1.53.04-2.23.11-.7.07-1.33.16-1.91.27v20.25h-7.58Z"/><path class="cls-11" d="m206.57,120.41c1.25,1.29,2.25,2.79,2.98,4.51.73,1.72,1.1,3.56,1.1,5.53s-.37,3.81-1.1,5.53c-.73,1.72-1.75,3.22-3.04,4.51-1.29,1.29-2.79,2.31-4.51,3.06-1.72.75-3.56,1.13-5.53,1.13s-3.81-.38-5.53-1.13c-1.72-.75-3.22-1.77-4.51-3.06-1.29-1.29-2.3-2.79-3.04-4.51-.73-1.72-1.1-3.56-1.1-5.53s.38-3.82,1.13-5.56c.75-1.74,1.77-3.25,3.06-4.54,1.29-1.29,2.79-2.3,4.51-3.04,1.72-.73,3.56-1.1,5.53-1.1s3.82.38,5.56,1.13c1.74.75,3.23,1.77,4.49,3.06Zm-10.1,16.71c.89,0,1.75-.17,2.55-.51.81-.34,1.51-.81,2.12-1.42s1.08-1.32,1.42-2.12c.34-.81.51-1.67.51-2.61s-.17-1.81-.51-2.63c-.34-.82-.81-1.53-1.4-2.12s-1.29-1.06-2.1-1.4c-.81-.34-1.66-.51-2.55-.51s-1.8.17-2.61.51c-.81.34-1.5.82-2.1,1.42-.59.61-1.07,1.32-1.42,2.12-.36.81-.54,1.67-.54,2.61s.17,1.8.51,2.61c.34.81.81,1.51,1.42,2.12.61.61,1.31,1.08,2.1,1.42.79.34,1.65.51,2.58.51Z"/><path class="cls-8" d="m235.31,135.56c-.07,1.5-.43,2.82-1.07,3.95-.64,1.13-1.5,2.08-2.58,2.85-1.07.77-2.3,1.35-3.68,1.75-1.38.39-2.82.59-4.32.59s-2.92-.13-4.24-.38c-1.33-.25-2.51-.52-3.55-.81-1.18-.36-2.29-.75-3.33-1.18l2.9-6.45c.29.11,1,.34,2.15.7,1.15.36,2.6.63,4.35.81,1.61.18,2.95.12,4.03-.19,1.07-.3,1.68-.76,1.83-1.37.14-.82-.52-1.43-1.99-1.83-.75-.18-1.64-.38-2.66-.59-1.02-.22-2.05-.47-3.09-.75-1.22-.29-2.33-.71-3.33-1.26-1-.55-1.83-1.24-2.47-2.04-.64-.81-1.08-1.75-1.32-2.82-.23-1.07-.17-2.26.19-3.55.36-1.32.95-2.44,1.77-3.33.82-.89,1.8-1.61,2.93-2.15,1.13-.54,2.35-.89,3.65-1.07,1.31-.18,2.64-.21,4-.11,1.36.11,2.61.35,3.76.73,1.15.38,2.17.76,3.06,1.16,1,.47,1.95.99,2.85,1.56l-3.76,5.96c-.64-.43-1.58-.89-2.82-1.37s-2.48-.81-3.73-.99c-1.5-.18-2.64-.09-3.41.27-.77.36-1.17.79-1.21,1.29-.04.36.07.64.32.83.25.2.54.33.86.4.14.04.45.11.91.21.47.11.98.23,1.56.38.57.14,1.16.29,1.77.43.61.14,1.15.27,1.61.38.86.25,1.77.56,2.74.91.97.36,1.85.84,2.66,1.45.81.61,1.46,1.37,1.96,2.28.5.91.73,2.03.7,3.36Z"/></g><path class="cls-12" d="m177.21,107.99c1.24.15,2.39.33,3.45.53,1.06.2,2.01.43,2.87.68s1.55.48,2.09.68v5.09h-8.81v30.01h-7.1v-30.01h-8.81v-5.09c.54-.2,1.23-.43,2.09-.68s1.81-.48,2.87-.68c1.06-.2,2.21-.38,3.45-.53,1.24-.15,2.52-.23,3.83-.23h.25c1.31,0,2.58.08,3.83.23Z"/></g></svg>