<?xml version="1.0" encoding="UTF-8"?><svg id="Camada_1" xmlns="http://www.w3.org/2000/svg" xmlns:xlink="http://www.w3.org/1999/xlink" viewBox="0 0 1000 550"><defs><style>.cls-1{fill:url(#Gradiente_sem_nome_10-3);}.cls-2{fill:#2980b9;}.cls-3{fill:url(#Gradiente_sem_nome_10-2);}.cls-4{fill:url(#Gradiente_sem_nome_10-6);}.cls-5{fill:url(#Gradiente_sem_nome_10-4);}.cls-6{fill:url(#Gradiente_sem_nome_10-8);}.cls-7{fill:url(#Gradiente_sem_nome_10);}.cls-8{fill:url(#Gradiente_sem_nome_10-7);}.cls-9{fill:url(#Gradiente_sem_nome_10-9);}.cls-10{fill:#43a5d1;}.cls-11{fill:url(#Gradiente_sem_nome_10-5);}.cls-12{fill:#3cc;}.cls-13{fill:#5ab8e2;}</style><linearGradient id="Gradiente_sem_nome_10" x1="222.69" y1="336.03" x2="226.86" y2="443.11" gradientUnits="userSpaceOnUse"><stop offset="0" stop-color="#1eaad7"/><stop offset=".99" stop-color="#005b97"/></linearGradient><linearGradient id="Gradiente_sem_nome_10-2" x1="289.39" y1="368.83" x2="290.33" y2="447.83" xlink:href="#Gradiente_sem_nome_10"/><linearGradient id="Gradiente_sem_nome_10-3" x1="369.75" y1="340.49" x2="369.94" y2="445.67" xlink:href="#Gradiente_sem_nome_10"/><linearGradient id="Gradiente_sem_nome_10-4" x1="447.56" y1="341.59" x2="448.6" y2="442.26" xlink:href="#Gradiente_sem_nome_10"/><linearGradient id="Gradiente_sem_nome_10-5" x1="522.58" y1="370.36" x2="522.12" y2="442.37" xlink:href="#Gradiente_sem_nome_10"/><linearGradient id="Gradiente_sem_nome_10-6" x1="586.57" y1="369.02" x2="586.76" y2="442.22" xlink:href="#Gradiente_sem_nome_10"/><linearGradient id="Gradiente_sem_nome_10-7" x1="699.92" y1="370.74" x2="700.22" y2="442.74" xlink:href="#Gradiente_sem_nome_10"/><linearGradient id="Gradiente_sem_nome_10-8" x1="770.2" y1="369.14" x2="769.61" y2="445.04" xlink:href="#Gradiente_sem_nome_10"/><linearGradient id="Gradiente_sem_nome_10-9" x1="609.77" y1="394.23" x2="672.53" y2="394.23" xlink:href="#Gradiente_sem_nome_10"/></defs><g><g><path class="cls-2" d="m626.66,102.72c-124.76,158.45-252.31,86.63-266.23,78.08.91,5.38,2.1,10.77,3.66,16.14,5.55,19.06,14.81,36.03,26.73,50.39,161.36,6.37,235.84-144.6,235.84-144.6Z"/><path class="cls-2" d="m402.04,259.4s.05.01.14.03c-.01-.01-.02-.02-.04-.03-.03,0-.07,0-.1,0Z"/><path class="cls-12" d="m402.14,259.4s.02.02.04.03c4.37,1.1,121.7,29.64,226.93-48.77,7.38-18.05,11.07-37.7,10.38-57.79-20.88,22.92-107.29,108.05-237.34,106.52Z"/><path class="cls-2" d="m425.23,277.2c32.65,20.13,73.37,26.91,113.1,15.33,26.6-7.75,49.12-22.7,66.15-42.07l-.38-.92c-77.86,49.78-163.26,31.59-178.87,27.66Z"/></g><g><path class="cls-13" d="m478.17,120.08s5.97-31.07,2.52-46.65c0,0-42.37,3.89-95.31,51.04,0,0,39.71-28.99,76.31-32.18,0,0,0,12.5-4.22,34.7,4.23,3.45,20.71-6.9,20.71-6.9Z"/><path class="cls-10" d="m516.41,177.97s40.75-45.01,44.58-65.71c0,0-59.82-26.69-198.63,49.24,0,0,107.37-39.11,166.42-30.68,0,0-3.94,29.51-12.37,47.15Z"/></g></g><g><g><path class="cls-7" d="m250.15,420.96v18.82h-16.09c-4.55,0-8.8-.86-12.75-2.59-3.96-1.73-7.41-4.07-10.36-7.02-2.96-2.95-5.3-6.41-7.02-10.37-1.73-3.95-2.59-8.2-2.59-12.75v-62.46c2.18-.91,4.84-1.73,7.98-2.45,3.14-.73,6.89-1.32,11.25-1.77v67.24c0,1.82.36,3.55,1.09,5.18.73,1.64,1.7,3.07,2.93,4.3,1.23,1.23,2.66,2.18,4.3,2.86,1.64.68,3.36,1.02,5.18,1.02h16.09Z"/><path class="cls-3" d="m325.02,373.91v65.87h-19.37v-1.09c-4.27,1.36-9.32,2.05-15.14,2.05-5,0-9.71-.95-14.12-2.86-4.41-1.91-8.25-4.5-11.52-7.77-3.27-3.27-5.87-7.09-7.77-11.46s-2.86-9.05-2.86-14.05.95-9.66,2.86-13.98c1.91-4.32,4.5-8.07,7.77-11.25,6.73-6.45,14.91-10.09,24.55-10.91,1.09-.09,2.16-.16,3.21-.2,1.04-.04,2.07-.07,3.07-.07,3.18,0,6.14.18,8.87.55,2.73.36,5.09.75,7.09,1.16,2,.41,3.59.8,4.77,1.16,1.18.36,1.86.55,2.04.55l6.55,2.32Zm-19.37,14.46c-1.36-.27-2.91-.5-4.64-.68-1.73-.18-3.5-.27-5.32-.27-.73,0-1.48.02-2.25.07-.77.05-1.52.11-2.25.2-2.64.18-5.05.77-7.23,1.77-2.18,1-4.05,2.23-5.59,3.68-1.55,1.55-2.73,3.25-3.55,5.11-.82,1.86-1.27,3.98-1.36,6.34,0,2.37.45,4.57,1.36,6.61.91,2.05,2.11,3.82,3.61,5.32s3.27,2.71,5.32,3.61c2.04.91,4.25,1.36,6.61,1.36,4,0,7.16-.36,9.48-1.09,2.32-.73,4.25-1.68,5.8-2.86v-29.19Z"/><path class="cls-1" d="m369.07,368.45c5,0,9.71.93,14.12,2.8,4.41,1.86,8.25,4.43,11.52,7.71,3.27,3.27,5.84,7.12,7.71,11.52,1.86,4.41,2.8,9.12,2.8,14.12.09,5-.84,9.66-2.8,13.98-1.96,4.32-4.57,8.02-7.84,11.11-3.18,3.18-6.89,5.71-11.12,7.57-4.23,1.86-8.71,3.02-13.43,3.48-1,.09-2.02.16-3.07.2-1.05.04-2.07.07-3.07.07-3.27,0-6.27-.18-9-.55-2.73-.36-5.09-.75-7.09-1.16-2-.41-3.59-.79-4.77-1.16-1.18-.36-1.86-.59-2.04-.68l-6.41-2.18v-90.97c2.18-.82,4.84-1.61,7.98-2.39,3.14-.77,6.89-1.34,11.25-1.71v30.14c4.36-1.27,9.46-1.91,15.27-1.91Zm12.14,47.46c1.55-1.54,2.73-3.23,3.55-5.05.82-1.82,1.23-3.91,1.23-6.27s-.43-4.57-1.29-6.61c-.87-2.05-2.07-3.84-3.61-5.39-1.55-1.54-3.34-2.75-5.39-3.61-2.05-.86-4.25-1.3-6.62-1.3-3.91,0-7.02.36-9.34,1.09-2.32.73-4.3,1.68-5.93,2.86v29.19c1.45.27,3.02.5,4.71.68,1.68.18,3.48.27,5.39.27.73,0,1.48-.02,2.25-.07.77-.04,1.52-.11,2.25-.2,2.64-.18,5.05-.77,7.23-1.77,2.18-1,4.04-2.27,5.59-3.82Z"/><path class="cls-5" d="m472.99,350.18c3.18,3.18,5.75,6.93,7.71,11.25,1.95,4.32,2.93,8.98,2.93,13.98s-.95,9.68-2.86,14.05c-1.91,4.36-4.5,8.18-7.77,11.46-3.27,3.27-7.12,5.86-11.52,7.77-4.41,1.91-9.12,2.86-14.12,2.86h-15.27v28.23h-19.23v-95.06l6.55-2.18c.09-.09.75-.32,1.98-.68,1.23-.36,2.84-.75,4.84-1.16,2-.41,4.36-.79,7.09-1.16,2.73-.36,5.68-.55,8.86-.55,1,0,2.02.02,3.07.07,1.04.05,2.11.12,3.21.2,4.64.46,9.07,1.59,13.3,3.41,4.23,1.82,7.98,4.32,11.25,7.5Zm-25.64,42.14c2.36,0,4.57-.45,6.62-1.36,2.04-.91,3.84-2.11,5.39-3.61,1.54-1.5,2.75-3.27,3.61-5.32.86-2.05,1.29-4.25,1.29-6.61,0-4.55-1.59-8.32-4.77-11.32-1.55-1.54-3.41-2.82-5.59-3.82-2.18-1-4.59-1.59-7.23-1.77-.73-.09-1.48-.16-2.25-.2-.77-.04-1.52-.07-2.25-.07-1.91,0-3.71.09-5.39.27-1.68.18-3.25.41-4.71.68v33.14h15.27Z"/><path class="cls-11" d="m548,379.09c3.18,3.27,5.71,7.09,7.57,11.46,1.86,4.36,2.8,9.05,2.8,14.05s-.93,9.68-2.8,14.05c-1.86,4.36-4.43,8.18-7.71,11.46-3.27,3.27-7.09,5.86-11.46,7.77-4.36,1.91-9.05,2.86-14.05,2.86s-9.68-.95-14.05-2.86c-4.36-1.91-8.18-4.5-11.46-7.77-3.27-3.27-5.84-7.09-7.71-11.46-1.86-4.36-2.79-9.05-2.79-14.05s.95-9.7,2.86-14.12c1.91-4.41,4.5-8.25,7.77-11.52,3.27-3.27,7.09-5.84,11.46-7.71,4.36-1.86,9.05-2.8,14.05-2.8s9.7.95,14.12,2.86c4.41,1.91,8.2,4.5,11.39,7.77Zm-25.64,42.41c2.27,0,4.43-.43,6.48-1.3,2.05-.86,3.84-2.07,5.39-3.61s2.75-3.34,3.61-5.39c.86-2.05,1.3-4.25,1.3-6.61s-.43-4.59-1.3-6.68c-.87-2.09-2.05-3.89-3.55-5.39s-3.27-2.68-5.32-3.55c-2.04-.86-4.21-1.3-6.48-1.3s-4.57.43-6.61,1.3c-2.05.87-3.82,2.07-5.32,3.61-1.5,1.55-2.71,3.34-3.61,5.39-.91,2.05-1.36,4.25-1.36,6.61s.43,4.57,1.29,6.61c.86,2.05,2.07,3.84,3.61,5.39,1.54,1.55,3.32,2.75,5.32,3.61,2,.87,4.18,1.3,6.55,1.3Z"/><path class="cls-4" d="m564.5,439.78v-66.01l6.55-2.18c.18,0,.86-.18,2.05-.55,1.18-.36,2.8-.75,4.84-1.16s4.45-.79,7.23-1.16c2.77-.36,5.8-.55,9.07-.55.91,0,1.84.02,2.8.07.96.05,1.93.12,2.93.2,2.82.18,4.91.41,6.27.68,1.36.27,2.23.46,2.59.55l-3.55,12.96-1.36,5.73c-.09,0-.14-.04-.14-.14-.27,0-.5-.04-.68-.14-1-.18-2.55-.32-4.64-.41-.73-.09-1.43-.16-2.11-.2-.68-.04-1.39-.07-2.11-.07-2,0-3.89.09-5.66.27-1.77.18-3.39.41-4.84.68v51.42h-19.23Z"/><path class="cls-8" d="m725.7,379.09c3.18,3.27,5.71,7.09,7.57,11.46,1.86,4.36,2.8,9.05,2.8,14.05s-.93,9.68-2.8,14.05c-1.86,4.36-4.43,8.18-7.71,11.46-3.27,3.27-7.09,5.86-11.46,7.77-4.36,1.91-9.05,2.86-14.05,2.86s-9.68-.95-14.05-2.86c-4.36-1.91-8.18-4.5-11.46-7.77-3.27-3.27-5.84-7.09-7.71-11.46-1.86-4.36-2.79-9.05-2.79-14.05s.95-9.7,2.86-14.12c1.91-4.41,4.5-8.25,7.77-11.52,3.27-3.27,7.09-5.84,11.46-7.71,4.36-1.86,9.05-2.8,14.05-2.8s9.7.95,14.12,2.86c4.41,1.91,8.2,4.5,11.39,7.77Zm-25.64,42.41c2.27,0,4.43-.43,6.48-1.3,2.05-.86,3.84-2.07,5.39-3.61s2.75-3.34,3.61-5.39c.86-2.05,1.3-4.25,1.3-6.61s-.43-4.59-1.3-6.68c-.87-2.09-2.05-3.89-3.55-5.39s-3.27-2.68-5.32-3.55c-2.04-.86-4.21-1.3-6.48-1.3s-4.57.43-6.61,1.3c-2.05.87-3.82,2.07-5.32,3.61-1.5,1.55-2.71,3.34-3.61,5.39-.91,2.05-1.36,4.25-1.36,6.61s.43,4.57,1.29,6.61c.86,2.05,2.07,3.84,3.61,5.39,1.54,1.55,3.32,2.75,5.32,3.61,2,.87,4.18,1.3,6.55,1.3Z"/><path class="cls-6" d="m798.67,417.55c-.18,3.82-1.09,7.16-2.73,10.02-1.64,2.86-3.82,5.27-6.55,7.23-2.73,1.96-5.84,3.43-9.34,4.43-3.5,1-7.16,1.5-10.98,1.5s-7.41-.32-10.77-.95c-3.36-.64-6.37-1.32-9-2.05-3-.91-5.82-1.91-8.46-3l7.37-16.37c.73.27,2.54.87,5.46,1.77,2.91.91,6.59,1.59,11.05,2.05,4.09.46,7.5.3,10.23-.48,2.73-.77,4.27-1.93,4.64-3.48.36-2.09-1.32-3.64-5.05-4.64-1.91-.45-4.16-.95-6.75-1.5-2.59-.55-5.21-1.18-7.84-1.91-3.09-.73-5.91-1.79-8.46-3.2-2.55-1.41-4.64-3.14-6.27-5.18-1.64-2.05-2.75-4.43-3.34-7.16-.59-2.73-.43-5.73.48-9,.91-3.36,2.41-6.18,4.5-8.46,2.09-2.27,4.57-4.09,7.43-5.46,2.86-1.36,5.95-2.27,9.27-2.73,3.32-.45,6.7-.55,10.16-.27,3.45.27,6.64.89,9.55,1.84,2.91.96,5.5,1.93,7.77,2.93,2.54,1.18,4.95,2.5,7.23,3.96l-9.55,15.14c-1.64-1.09-4.02-2.25-7.16-3.48s-6.3-2.07-9.48-2.52c-3.82-.45-6.71-.23-8.66.68-1.96.91-2.98,2-3.07,3.27-.09.91.18,1.62.82,2.11.63.5,1.36.84,2.18,1.02.36.09,1.14.27,2.32.55,1.18.27,2.5.59,3.96.95,1.45.36,2.95.73,4.5,1.09,1.54.36,2.91.68,4.09.95,2.18.64,4.5,1.41,6.96,2.32,2.46.91,4.71,2.14,6.75,3.68,2.05,1.55,3.7,3.48,4.98,5.8,1.27,2.32,1.86,5.16,1.77,8.52Z"/></g><path class="cls-9" d="m651.18,347.57c3.15.38,6.07.83,8.76,1.34,2.68.51,5.11,1.09,7.29,1.73s3.94,1.21,5.3,1.73v12.91h-22.37v76.18h-18.02v-76.18h-22.37v-12.91c1.36-.51,3.13-1.09,5.3-1.73s4.6-1.21,7.29-1.73c2.68-.51,5.6-.96,8.76-1.34,3.15-.38,6.39-.57,9.71-.57h.64c3.32,0,6.56.19,9.71.57Z"/></g></svg>